<svg preserveAspectRatio="none" width="100%" height="100%" overflow="visible" style="display: block;" viewBox="0 0 13.3 13.3" fill="none" xmlns="http://www.w3.org/2000/svg">
<path id="Vector" d="M3.98333 7.31667V9.98333M9.31667 5.98333V9.98333M6.65 3.31667V9.98333M3.85 12.65H9.45C10.5701 12.65 11.1301 12.65 11.558 12.432C11.9343 12.2403 12.2403 11.9343 12.432 11.558C12.65 11.1301 12.65 10.5701 12.65 9.45V3.85C12.65 2.72989 12.65 2.16984 12.432 1.74202C12.2403 1.36569 11.9343 1.05973 11.558 0.867987C11.1301 0.650001 10.5701 0.650001 9.45 0.650001H3.85C2.72989 0.650001 2.16984 0.650001 1.74202 0.867987C1.36569 1.05973 1.05973 1.36569 0.867987 1.74202C0.650001 2.16984 0.650001 2.72989 0.650001 3.85V9.45C0.650001 10.5701 0.650001 11.1301 0.867987 11.558C1.05973 11.9343 1.36569 12.2403 1.74202 12.432C2.16984 12.65 2.72989 12.65 3.85 12.65Z" stroke="var(--stroke-0, #0F172A)" stroke-width="1.3" stroke-linecap="round" stroke-linejoin="round"/>
</svg>
