<svg preserveAspectRatio="none" width="100%" height="100%" overflow="visible" style="display: block;" viewBox="0 0 14.6333 14.6333" fill="none" xmlns="http://www.w3.org/2000/svg">
<path id="Vector" d="M2.65 9.31667C2.02875 9.31667 1.71812 9.31667 1.47309 9.2152C1.14639 9.07987 0.886821 8.82027 0.751494 8.4936C0.650001 8.24853 0.650001 7.93793 0.650001 7.31667V2.78333C0.650001 2.0366 0.650001 1.66323 0.795328 1.37801C0.923154 1.12713 1.12713 0.923154 1.37801 0.795328C1.66323 0.650001 2.0366 0.650001 2.78333 0.650001H7.31667C7.93793 0.650001 8.24853 0.650001 8.4936 0.751494C8.82027 0.886821 9.07987 1.14639 9.2152 1.47309C9.31667 1.71812 9.31667 2.02875 9.31667 2.65M7.45 13.9833H11.85C12.5967 13.9833 12.9701 13.9833 13.2553 13.838C13.5062 13.7102 13.7102 13.5062 13.838 13.2553C13.9833 12.9701 13.9833 12.5967 13.9833 11.85V7.45C13.9833 6.70327 13.9833 6.32987 13.838 6.04467C13.7102 5.79379 13.5062 5.58982 13.2553 5.46199C12.9701 5.31667 12.5967 5.31667 11.85 5.31667H7.45C6.70327 5.31667 6.32987 5.31667 6.04467 5.46199C5.79379 5.58982 5.58982 5.79379 5.46199 6.04467C5.31667 6.32987 5.31667 6.70327 5.31667 7.45V11.85C5.31667 12.5967 5.31667 12.9701 5.46199 13.2553C5.58982 13.5062 5.79379 13.7102 6.04467 13.838C6.32987 13.9833 6.70327 13.9833 7.45 13.9833Z" stroke="var(--stroke-0, #0F172A)" stroke-width="1.3" stroke-linecap="round" stroke-linejoin="round"/>
</svg>
