<svg preserveAspectRatio="none" width="100%" height="100%" overflow="visible" style="display: block;" viewBox="0 0 14 14" fill="none" xmlns="http://www.w3.org/2000/svg">
<g id="Frame">
<path id="Vector" d="M4.66667 12.25V4.08333C4.66667 3.54085 4.66667 3.26961 4.72629 3.04706C4.88811 2.44316 5.35982 1.97145 5.96371 1.80963C6.18625 1.75 6.4575 1.75 7 1.75C7.5425 1.75 7.81375 1.75 8.03629 1.80963C8.64016 1.97145 9.1119 2.44316 9.27372 3.04706C9.33333 3.26961 9.33333 3.54085 9.33333 4.08333V12.25M3.03333 12.25H10.9667C11.6201 12.25 11.9468 12.25 12.1963 12.1228C12.4158 12.011 12.5943 11.8325 12.7062 11.613C12.8333 11.3635 12.8333 11.0367 12.8333 10.3833V5.95C12.8333 5.2966 12.8333 4.96991 12.7062 4.72034C12.5943 4.50082 12.4158 4.32234 12.1963 4.21049C11.9468 4.08333 11.6201 4.08333 10.9667 4.08333H3.03333C2.37994 4.08333 2.05324 4.08333 1.80368 4.21049C1.58415 4.32234 1.40568 4.50082 1.29383 4.72034C1.16667 4.96991 1.16667 5.2966 1.16667 5.95V10.3833C1.16667 11.0367 1.16667 11.3635 1.29383 11.613C1.40568 11.8325 1.58415 12.011 1.80368 12.1228C2.05324 12.25 2.37994 12.25 3.03333 12.25Z" stroke="var(--stroke-0, #0F172A)" stroke-width="1.3" stroke-linecap="round" stroke-linejoin="round"/>
</g>
</svg>
