<svg preserveAspectRatio="none" width="100%" height="100%" overflow="visible" style="display: block;" viewBox="0 0 14 14" fill="none" xmlns="http://www.w3.org/2000/svg">
<g id="Frame" clip-path="url(#clip0_3832_2098)">
<path id="Vector" d="M5.83333 8.75L4.03943 10.5663C3.78921 10.8197 3.6641 10.9464 3.55655 10.9553C3.46326 10.9631 3.37191 10.9255 3.31098 10.8544C3.24074 10.7725 3.24074 10.5945 3.24074 10.2384V9.32843C3.24074 9.009 2.97912 8.77783 2.66303 8.73151C1.89801 8.61945 1.29721 8.01868 1.18515 7.25363C1.16667 7.12752 1.16667 6.97696 1.16667 6.6759V3.96667C1.16667 2.98657 1.16667 2.49653 1.35741 2.12218C1.52518 1.7929 1.7929 1.52518 2.12218 1.35741C2.49653 1.16667 2.98657 1.16667 3.96667 1.16667H8.28333C9.26345 1.16667 9.75345 1.16667 10.1278 1.35741C10.4571 1.52518 10.7248 1.7929 10.8926 2.12218C11.0833 2.49653 11.0833 2.98657 11.0833 3.96667V6.41667M11.0833 12.8333L9.81377 11.9507C9.63533 11.8266 9.54608 11.7646 9.44895 11.7206C9.36273 11.6815 9.27214 11.6531 9.1791 11.636C9.07422 11.6167 8.96554 11.6167 8.74819 11.6167H7.7C7.04661 11.6167 6.71988 11.6167 6.47033 11.4895C6.25083 11.3777 6.07233 11.1992 5.9605 10.9797C5.83333 10.7301 5.83333 10.4034 5.83333 9.75001V8.28333C5.83333 7.62994 5.83333 7.30322 5.9605 7.05367C6.07233 6.83416 6.25083 6.65566 6.47033 6.54383C6.71988 6.41667 7.04661 6.41667 7.7 6.41667H10.9667C11.6201 6.41667 11.9468 6.41667 12.1963 6.54383C12.4158 6.65566 12.5943 6.83416 12.7062 7.05367C12.8333 7.30322 12.8333 7.62994 12.8333 8.28333V9.86668C12.8333 10.4103 12.8333 10.6821 12.7446 10.8965C12.6261 11.1823 12.399 11.4095 12.1132 11.5278C11.8987 11.6167 11.6269 11.6167 11.0833 11.6167V12.8333Z" stroke="var(--stroke-0, #0F172A)" stroke-width="1.3" stroke-linecap="round" stroke-linejoin="round"/>
</g>
<defs>
<clipPath id="clip0_3832_2098">
<rect width="14" height="14" fill="white"/>
</clipPath>
</defs>
</svg>
