<svg width="16" height="16" viewBox="0 0 16 16" fill="none" xmlns="http://www.w3.org/2000/svg">
  <g transform="translate(1.5240, 0.6830)">
    <path id="Vector" d="M4.71211 13.3167C5.18219 13.7316 5.79972 13.9833 6.47599 13.9833C7.15232 13.9833 7.76979 13.7316 8.23985 13.3167M10.476 4.65C10.476 3.58913 10.0546 2.57172 9.30445 1.82157C8.55425 1.07143 7.53685 0.65 6.47599 0.65C5.41512 0.65 4.39772 1.07143 3.64757 1.82157C2.89743 2.57172 2.476 3.58913 2.476 4.65C2.476 6.71013 1.95631 8.12067 1.37577 9.0536C0.886087 9.8406 0.641241 10.2341 0.650214 10.3439C0.660161 10.4654 0.685907 10.5117 0.783847 10.5844C0.872307 10.65 1.27106 10.65 2.06857 10.65H10.8835C11.6809 10.65 12.0797 10.65 12.1681 10.5844C12.2661 10.5117 12.2919 10.4654 12.3018 10.3439C12.3108 10.2341 12.0659 9.8406 11.5763 9.0536C10.9957 8.12067 10.476 6.71013 10.476 4.65Z" stroke="currentColor" stroke-width="1.3" stroke-linecap="round" stroke-linejoin="round"/>
  </g>
</svg>