<svg width="16" height="16" viewBox="0 0 16 16" fill="none" xmlns="http://www.w3.org/2000/svg">
  <g transform="translate(0.6830, 0.6030)">
    <path id="Vector" d="M6.65 2.06421H3.85C2.72989 2.06421 2.16984 2.06421 1.74202 2.2822C1.36569 2.47395 1.05973 2.77991 0.867987 3.15623C0.650001 3.58406 0.650001 4.14411 0.650001 5.26421V10.8642C0.650001 11.9843 0.650001 12.5444 0.867987 12.9722C1.05973 13.3485 1.36569 13.6545 1.74202 13.8462C2.16984 14.0642 2.72989 14.0642 3.85 14.0642H9.45C10.5701 14.0642 11.1301 14.0642 11.558 13.8462C11.9343 13.6545 12.2403 13.3485 12.432 12.9722C12.65 12.5444 12.65 11.9843 12.65 10.8642V8.06423M4.64998 10.0642H5.76635C6.09247 10.0642 6.25553 10.0642 6.409 10.0274C6.545 9.99469 6.67507 9.94083 6.7944 9.86776C6.92893 9.78529 7.04427 9.66996 7.27487 9.43936L13.65 3.06421C14.2023 2.51193 14.2023 1.6165 13.65 1.06421C13.0977 0.511933 12.2023 0.511926 11.65 1.06421L5.27482 7.43936C5.04422 7.66996 4.92892 7.78529 4.84646 7.91983C4.77336 8.03916 4.71949 8.16916 4.68682 8.30523C4.64998 8.45869 4.64998 8.62176 4.64998 8.94789V10.0642Z" stroke="currentColor" stroke-width="1.3" stroke-linecap="round" stroke-linejoin="round"/>
  </g>
</svg>