<svg preserveAspectRatio="none" width="100%" height="100%" overflow="visible" style="display: block;" viewBox="0 0 16 16" fill="none" xmlns="http://www.w3.org/2000/svg">
<g id="Frame">
<path id="Vector" d="M6.66667 5.66816C6.78413 5.33424 7.016 5.05267 7.32113 4.87332C7.62633 4.69397 7.98513 4.6284 8.334 4.68825C8.68287 4.74809 8.99933 4.92947 9.22727 5.20027C9.45527 5.47107 9.58 5.81381 9.57947 6.16779C9.57947 7.16707 8.0806 7.66667 8.0806 7.66667M8.09993 9.66667H8.1066M6.6 12.8L7.57333 14.0978C7.71807 14.2908 7.79047 14.3873 7.8792 14.4218C7.95687 14.452 8.04313 14.452 8.1208 14.4218C8.20953 14.3873 8.28193 14.2908 8.42667 14.0978L9.4 12.8C9.5954 12.5394 9.69313 12.4091 9.81233 12.3097C9.97127 12.1771 10.1589 12.0832 10.3603 12.0357C10.5114 12 10.6743 12 11 12C11.9319 12 12.3978 12 12.7654 11.8477C13.2554 11.6448 13.6448 11.2554 13.8477 10.7654C14 10.3978 14 9.93187 14 9V5.2C14 4.07989 14 3.51984 13.782 3.09202C13.5903 2.71569 13.2843 2.40973 12.908 2.21799C12.4801 2 11.9201 2 10.8 2H5.2C4.07989 2 3.51984 2 3.09202 2.21799C2.71569 2.40973 2.40973 2.71569 2.21799 3.09202C2 3.51984 2 4.07989 2 5.2V9C2 9.93187 2 10.3978 2.15224 10.7654C2.35523 11.2554 2.74458 11.6448 3.23463 11.8477C3.60217 12 4.06812 12 5 12C5.32572 12 5.48858 12 5.63967 12.0357C5.84113 12.0832 6.02875 12.1771 6.18767 12.3097C6.30685 12.4091 6.40457 12.5394 6.6 12.8Z" stroke="currentColor" stroke-width="1.3" stroke-linecap="round" stroke-linejoin="round"/>
</g>
</svg>
