<svg width="16" height="16" viewBox="0 0 16 16" fill="none" xmlns="http://www.w3.org/2000/svg">
  <g transform="translate(0.6830, 2.0170)">
    <path id="Vector" d="M0.983347 5.98342H3.23799C3.69479 5.98342 4.11239 6.24148 4.31668 6.65008C4.52097 7.05868 4.93857 7.31675 5.39537 7.31675H9.23801C9.69481 7.31675 10.1124 7.05868 10.3167 6.65008C10.5209 6.24148 10.9385 5.98342 11.3953 5.98342H13.65M5.29439 0.650084H9.33895C10.0569 0.650084 10.4158 0.650084 10.7327 0.759391C11.013 0.856057 11.2683 1.01382 11.4801 1.22125C11.7195 1.45582 11.8801 1.77688 12.2011 2.419L13.6455 5.30775C13.7715 5.55975 13.8345 5.68575 13.8789 5.81775C13.9184 5.93508 13.9469 6.05575 13.964 6.17828C13.9833 6.31622 13.9833 6.45708 13.9833 6.73882V8.11675C13.9833 9.23688 13.9833 9.79688 13.7653 10.2247C13.5736 10.6011 13.2677 10.907 12.8913 11.0987C12.4635 11.3167 11.9035 11.3167 10.7833 11.3167H3.85001C2.72991 11.3167 2.16985 11.3167 1.74203 11.0987C1.36571 10.907 1.05975 10.6011 0.868 10.2247C0.650013 9.79688 0.650013 9.23688 0.650013 8.11675V6.73882C0.650013 6.45708 0.650013 6.31622 0.669327 6.17828C0.686487 6.05575 0.714973 5.93508 0.754427 5.81775C0.798853 5.68575 0.861853 5.55975 0.987847 5.30775L2.43222 2.419C2.75328 1.77688 2.91381 1.45582 3.15331 1.22125C3.3651 1.01382 3.62035 0.856057 3.90061 0.759391C4.21751 0.650084 4.57647 0.650084 5.29439 0.650084Z" stroke="currentColor" stroke-width="1.3" stroke-linecap="round" stroke-linejoin="round"/>
  </g>
</svg>