<svg width="16" height="16" viewBox="0 0 16 16" fill="none" xmlns="http://www.w3.org/2000/svg">
  <g transform="translate(0.6830, 1.3500)">
    <path id="Vector" d="M13.9833 12.65V11.3167C13.9833 10.0741 13.1335 9.03007 11.9833 8.734M9.65 0.84384C10.6273 1.23943 11.3167 2.19754 11.3167 3.31667C11.3167 4.43579 10.6273 5.39393 9.65 5.78947M10.65 12.65C10.65 11.4075 10.65 10.7863 10.447 10.2962C10.1763 9.6428 9.6572 9.12367 9.0038 8.853C8.51373 8.65 7.89253 8.65 6.65 8.65H4.65C3.40749 8.65 2.78623 8.65 2.29618 8.853C1.64277 9.12367 1.12364 9.6428 0.852987 10.2962C0.65 10.7863 0.65 11.4075 0.65 12.65M8.31667 3.31667C8.31667 4.78943 7.12273 5.98333 5.65 5.98333C4.17724 5.98333 2.98333 4.78943 2.98333 3.31667C2.98333 1.84391 4.17724 0.65 5.65 0.65C7.12273 0.65 8.31667 1.84391 8.31667 3.31667Z" stroke="currentColor" stroke-width="1.3" stroke-linecap="round" stroke-linejoin="round"/>
  </g>
</svg>