<svg width="16" height="16" viewBox="0 0 16 16" fill="none" xmlns="http://www.w3.org/2000/svg">
  <g transform="translate(2.0170, 1.3500)">
    <path id="Vector" d="M11.3167 12.65C11.3167 11.7196 11.3167 11.2545 11.2019 10.8759C10.9434 10.0237 10.2764 9.35667 9.42412 9.09813C9.04559 8.98333 8.58045 8.98333 7.65005 8.98333H4.31672C3.38635 8.98333 2.92115 8.98333 2.54263 9.09813C1.69035 9.35667 1.02341 10.0237 0.764879 10.8759C0.650052 11.2545 0.650052 11.7196 0.650052 12.65M8.98339 3.65C8.98339 5.30685 7.64025 6.65 5.98339 6.65C4.32653 6.65 2.98339 5.30685 2.98339 3.65C2.98339 1.99315 4.32653 0.65 5.98339 0.65C7.64025 0.65 8.98339 1.99315 8.98339 3.65Z" stroke="currentColor" stroke-width="1.3" stroke-linecap="round" stroke-linejoin="round"/>
  </g>
</svg>