<svg preserveAspectRatio="none" width="100%" height="100%" overflow="visible" style="display: block;" viewBox="0 0 16 16" fill="none" xmlns="http://www.w3.org/2000/svg">
<g id="Frame" clip-path="url(#clip0_6224_17756)">
<path id="Vector" d="M5.47999 9H4.51999C3.62683 9 3.18025 9 2.81686 9.11021C1.99868 9.3584 1.35842 9.99872 1.11023 10.8169C0.999992 11.1803 1.00002 13.1068 1.00002 14M8.99999 3.88C8.99999 5.47058 7.71058 6.76 6.11999 6.76C4.52941 6.76 3.23999 5.47058 3.23999 3.88C3.23999 2.28942 4.52941 1 6.11999 1C7.71058 1 8.99999 2.28942 8.99999 3.88Z" stroke="currentColor" stroke-width="1.3" stroke-linecap="round" stroke-linejoin="round"/>
<path id="Vector_2" d="M8 10.05L10.8577 12.0504C11.0891 12.2124 11.2048 12.2934 11.3307 12.3248C11.4419 12.3525 11.5581 12.3525 11.6693 12.3248C11.7952 12.2934 11.9109 12.2124 12.1423 12.0504L15 10.05M9.68 14.6H13.32C13.9081 14.6 14.2021 14.6 14.4267 14.4855C14.6243 14.3849 14.7849 14.2243 14.8856 14.0267C15 13.8021 15 13.5081 15 12.92V10.68C15 10.0919 15 9.79792 14.8856 9.57331C14.7849 9.37574 14.6243 9.21511 14.4267 9.11444C14.2021 9 13.9081 9 13.32 9H9.68C9.09194 9 8.79792 9 8.57331 9.11444C8.37574 9.21511 8.21511 9.37574 8.11444 9.57331C8 9.79792 8 10.0919 8 10.68V12.92C8 13.5081 8 13.8021 8.11444 14.0267C8.21511 14.2243 8.37574 14.3849 8.57331 14.4855C8.79792 14.6 9.09194 14.6 9.68 14.6Z" stroke="currentColor" stroke-width="1.2" stroke-linecap="round" stroke-linejoin="round"/>
</g>
<defs>
<clipPath id="clip0_6224_17756">
<rect width="16" height="16" fill="white"/>
</clipPath>
</defs>
</svg>
