<svg preserveAspectRatio="none" width="100%" height="100%" overflow="visible" style="display: block;" viewBox="0 0 16 16" fill="none" xmlns="http://www.w3.org/2000/svg">
<g id="Frame">
<path id="Vector" d="M8.00033 10C9.10487 10 10.0003 9.1046 10.0003 8C10.0003 6.8954 9.10487 6 8.00033 6C6.89573 6 6.00033 6.8954 6.00033 8C6.00033 9.1046 6.89573 10 8.00033 10Z" stroke="currentColor" stroke-width="1.3" stroke-linecap="round" stroke-linejoin="round"/>
<path id="Vector_2" d="M6.19305 12.9141L6.58268 13.7904C6.69853 14.0512 6.88753 14.2729 7.1268 14.4284C7.36613 14.5839 7.6454 14.6667 7.9308 14.6667C8.21627 14.6667 8.49553 14.5839 8.7348 14.4284C8.97413 14.2729 9.16313 14.0512 9.279 13.7904L9.6686 12.9141C9.80733 12.6031 10.0406 12.3439 10.3353 12.1733C10.6318 12.0023 10.9748 11.9294 11.3153 11.9652L12.2686 12.0667C12.5524 12.0967 12.8388 12.0437 13.0931 11.9142C13.3473 11.7847 13.5586 11.5842 13.7012 11.3371C13.844 11.09 13.912 10.8069 13.897 10.5219C13.882 10.237 13.7847 9.96253 13.6167 9.73187L13.0523 8.95627C12.8513 8.67807 12.7439 8.3432 12.7457 8C12.7456 7.65773 12.854 7.32427 13.0553 7.0474L13.6197 6.27185C13.7876 6.04117 13.885 5.76671 13.9 5.48178C13.915 5.19685 13.8469 4.91369 13.7041 4.66667C13.5615 4.41949 13.3503 4.21899 13.096 4.08949C12.8417 3.95998 12.5553 3.90702 12.2716 3.93704L11.3183 4.03852C10.9778 4.07427 10.6347 4.00141 10.3383 3.83037C10.043 3.65883 9.8096 3.39824 9.6716 3.08593L9.279 2.20963C9.16313 1.94878 8.97413 1.72715 8.7348 1.5716C8.49553 1.41605 8.21627 1.33329 7.9308 1.33333C7.6454 1.33329 7.36613 1.41605 7.1268 1.5716C6.88753 1.72715 6.69853 1.94878 6.58268 2.20963L6.19305 3.08593C6.055 3.39824 5.82163 3.65883 5.52638 3.83037C5.22986 4.00141 4.88683 4.07427 4.54638 4.03852L3.59009 3.93704C3.30631 3.90702 3.01991 3.95998 2.76563 4.08949C2.51135 4.21899 2.30009 4.41949 2.15749 4.66667C2.01471 4.91369 1.94668 5.19685 1.96167 5.48178C1.97666 5.76671 2.07402 6.04117 2.24194 6.27185L2.80638 7.0474C3.00767 7.32427 3.11607 7.65773 3.11601 8C3.11607 8.34227 3.00767 8.6758 2.80638 8.9526L2.24194 9.72813C2.07402 9.9588 1.97666 10.2333 1.96167 10.5182C1.94668 10.8031 2.01471 11.0863 2.15749 11.3333C2.30024 11.5804 2.51151 11.7808 2.76576 11.9103C3.02001 12.0397 3.30633 12.0928 3.59009 12.0629L4.54342 11.9615C4.88387 11.9257 5.22689 11.9986 5.52342 12.1696C5.81977 12.3407 6.05423 12.6013 6.19305 12.9141Z" stroke="currentColor" stroke-width="1.3" stroke-linecap="round" stroke-linejoin="round"/>
</g>
</svg>
