<svg preserveAspectRatio="none" width="100%" height="100%" overflow="visible" style="display: block;" viewBox="0 0 16 16" fill="none" xmlns="http://www.w3.org/2000/svg">
<g id="Frame" clip-path="url(#clip0_6224_17776)">
<path id="Vector" d="M6.66667 10L4.61649 12.0758C4.33053 12.3653 4.18754 12.5101 4.06463 12.5203C3.95801 12.5292 3.85361 12.4863 3.78397 12.4051C3.70371 12.3115 3.70371 12.108 3.70371 11.701V10.6611C3.70371 10.296 3.40471 10.0318 3.04347 9.97887C2.16916 9.8508 1.48252 9.1642 1.35445 8.28987C1.33333 8.14573 1.33333 7.97367 1.33333 7.6296V4.53333C1.33333 3.41323 1.33333 2.85317 1.55132 2.42535C1.74307 2.04903 2.04903 1.74307 2.42535 1.55132C2.85317 1.33333 3.41323 1.33333 4.53333 1.33333H9.46667C10.5868 1.33333 11.1468 1.33333 11.5747 1.55132C11.951 1.74307 12.2569 2.04903 12.4487 2.42535C12.6667 2.85317 12.6667 3.41323 12.6667 4.53333V7.33333M12.6667 14.6667L11.2157 13.6579C11.0118 13.5161 10.9098 13.4452 10.7988 13.3949C10.7003 13.3503 10.5967 13.3179 10.4904 13.2983C10.3705 13.2762 10.2463 13.2762 9.99793 13.2762H8.8C8.05327 13.2762 7.67987 13.2762 7.39467 13.1309C7.1438 13.0031 6.9398 12.7991 6.812 12.5482C6.66667 12.2629 6.66667 11.8896 6.66667 11.1429V9.46667C6.66667 8.71993 6.66667 8.34653 6.812 8.06133C6.9398 7.81047 7.1438 7.60647 7.39467 7.47867C7.67987 7.33333 8.05327 7.33333 8.8 7.33333H12.5333C13.2801 7.33333 13.6535 7.33333 13.9387 7.47867C14.1895 7.60647 14.3935 7.81047 14.5213 8.06133C14.6667 8.34653 14.6667 8.71993 14.6667 9.46667V11.2762C14.6667 11.8975 14.6667 12.2081 14.5652 12.4531C14.4299 12.7798 14.1703 13.0394 13.8436 13.1747C13.5985 13.2762 13.2879 13.2762 12.6667 13.2762V14.6667Z" stroke="currentColor" stroke-width="1.3" stroke-linecap="round" stroke-linejoin="round"/>
</g>
<defs>
<clipPath id="clip0_6224_17776">
<rect width="16" height="16" fill="white"/>
</clipPath>
</defs>
</svg>
