<svg width="16" height="16" viewBox="0 0 16 16" fill="none" xmlns="http://www.w3.org/2000/svg">
  <g transform="translate(0.6830, 0.6830)">
    <path id="Vector" d="M4.65006 4.65006H4.65673M0.650064 2.7834V5.7664C0.650064 6.09253 0.650064 6.2556 0.686904 6.40906C0.719564 6.54506 0.773438 6.67513 0.846544 6.79446C0.928998 6.929 1.0443 7.04433 1.2749 7.27493L6.38733 12.3873C7.17933 13.1793 7.5754 13.5754 8.032 13.7237C8.43373 13.8543 8.8664 13.8543 9.26806 13.7237C9.72473 13.5754 10.1208 13.1793 10.9128 12.3873L12.3873 10.9128C13.1793 10.1208 13.5754 9.72473 13.7237 9.26806C13.8543 8.8664 13.8543 8.43373 13.7237 8.032C13.5754 7.5754 13.1793 7.17933 12.3873 6.38733L7.27493 1.2749C7.04433 1.0443 6.929 0.928998 6.79446 0.846544C6.67513 0.773438 6.54506 0.719564 6.40906 0.686904C6.2556 0.650064 6.09253 0.650064 5.76641 0.650064H2.7834C2.03666 0.650064 1.66329 0.650064 1.37808 0.795391C1.1272 0.923218 0.923218 1.12719 0.795391 1.37808C0.650064 1.66329 0.650064 2.03666 0.650064 2.7834ZM4.9834 4.65006C4.9834 4.83416 4.83416 4.9834 4.65006 4.9834C4.46597 4.9834 4.31673 4.83416 4.31673 4.65006C4.31673 4.46597 4.46597 4.31673 4.65006 4.31673C4.83416 4.31673 4.9834 4.46597 4.9834 4.65006Z" stroke="currentColor" stroke-width="1.3" stroke-linecap="round" stroke-linejoin="round"/>
  </g>
</svg>